<mxfile host="app.diagrams.net" agent="Mozilla/5.0 (Windows NT 10.0; Win64; x64) AppleWebKit/537.36 (KHTML, like Gecko) Chrome/135.0.0.0 Safari/537.36" version="26.2.6">
  <diagram id="R2lEEEUBdFMjLlhIrx00" name="Page-1">
    <mxGraphModel dx="1215" dy="728" grid="1" gridSize="10" guides="1" tooltips="1" connect="1" arrows="1" fold="1" page="1" pageScale="1" pageWidth="850" pageHeight="1100" math="0" shadow="0" extFonts="Permanent Marker^https://fonts.googleapis.com/css?family=Permanent+Marker">
      <root>
        <mxCell id="0" />
        <mxCell id="1" parent="0" />
        <mxCell id="kXIBeF_RaEKFVuziZFFI-1" value="User" style="whiteSpace=wrap;html=1;align=center;fontFamily=Kahroba RG;fontSize=12;" vertex="1" parent="1">
          <mxGeometry x="610" y="220" width="100" height="40" as="geometry" />
        </mxCell>
        <mxCell id="kXIBeF_RaEKFVuziZFFI-2" value="Book" style="whiteSpace=wrap;html=1;align=center;fontFamily=Kahroba RG;fontSize=12;" vertex="1" parent="1">
          <mxGeometry x="75" y="220" width="100" height="40" as="geometry" />
        </mxCell>
        <mxCell id="kXIBeF_RaEKFVuziZFFI-3" value="Author" style="whiteSpace=wrap;html=1;align=center;fontFamily=Kahroba RG;fontSize=12;" vertex="1" parent="1">
          <mxGeometry x="75" y="420" width="100" height="40" as="geometry" />
        </mxCell>
        <mxCell id="kXIBeF_RaEKFVuziZFFI-8" value="Name" style="ellipse;whiteSpace=wrap;html=1;align=center;fontFamily=Kahroba RG;fontSize=12;" vertex="1" parent="1">
          <mxGeometry x="550" y="160" width="60" height="40" as="geometry" />
        </mxCell>
        <mxCell id="kXIBeF_RaEKFVuziZFFI-9" value="ID" style="ellipse;whiteSpace=wrap;html=1;align=center;fontStyle=4;fontFamily=Kahroba RG;fontSize=12;" vertex="1" parent="1">
          <mxGeometry x="580" y="110" width="60" height="40" as="geometry" />
        </mxCell>
        <mxCell id="kXIBeF_RaEKFVuziZFFI-10" value="Contact" style="ellipse;whiteSpace=wrap;html=1;align=center;fontFamily=Kahroba RG;fontSize=12;" vertex="1" parent="1">
          <mxGeometry x="660" y="140" width="100" height="40" as="geometry" />
        </mxCell>
        <mxCell id="kXIBeF_RaEKFVuziZFFI-11" value="Phone_Number" style="ellipse;shape=doubleEllipse;margin=3;whiteSpace=wrap;html=1;align=center;fontFamily=Kahroba RG;fontSize=12;" vertex="1" parent="1">
          <mxGeometry x="760" y="110" width="110" height="40" as="geometry" />
        </mxCell>
        <mxCell id="kXIBeF_RaEKFVuziZFFI-12" value="Email" style="ellipse;shape=doubleEllipse;margin=3;whiteSpace=wrap;html=1;align=center;fontFamily=Kahroba RG;fontSize=12;" vertex="1" parent="1">
          <mxGeometry x="760" y="175" width="80" height="40" as="geometry" />
        </mxCell>
        <mxCell id="kXIBeF_RaEKFVuziZFFI-13" value="Shipping_Address" style="ellipse;shape=doubleEllipse;margin=3;whiteSpace=wrap;html=1;align=center;fontFamily=Kahroba RG;fontSize=12;" vertex="1" parent="1">
          <mxGeometry x="647.5" y="80" width="120" height="40" as="geometry" />
        </mxCell>
        <mxCell id="kXIBeF_RaEKFVuziZFFI-14" value="d" style="ellipse;whiteSpace=wrap;html=1;align=center;fontFamily=Kahroba RG;fontSize=12;" vertex="1" parent="1">
          <mxGeometry x="640" y="300" width="40" height="40" as="geometry" />
        </mxCell>
        <mxCell id="kXIBeF_RaEKFVuziZFFI-15" value="" style="shape=link;html=1;rounded=0;entryX=0.5;entryY=0;entryDx=0;entryDy=0;exitX=0.5;exitY=1;exitDx=0;exitDy=0;fontFamily=Kahroba RG;fontSize=12;" edge="1" parent="1" source="kXIBeF_RaEKFVuziZFFI-1" target="kXIBeF_RaEKFVuziZFFI-14">
          <mxGeometry relative="1" as="geometry">
            <mxPoint x="425" y="330" as="sourcePoint" />
            <mxPoint x="585" y="330" as="targetPoint" />
          </mxGeometry>
        </mxCell>
        <mxCell id="kXIBeF_RaEKFVuziZFFI-17" value="Seller" style="whiteSpace=wrap;html=1;align=center;fontFamily=Kahroba RG;fontSize=12;" vertex="1" parent="1">
          <mxGeometry x="540" y="360" width="100" height="40" as="geometry" />
        </mxCell>
        <mxCell id="kXIBeF_RaEKFVuziZFFI-18" value="Customer" style="whiteSpace=wrap;html=1;align=center;fontFamily=Kahroba RG;fontSize=12;" vertex="1" parent="1">
          <mxGeometry x="680" y="360" width="100" height="40" as="geometry" />
        </mxCell>
        <mxCell id="kXIBeF_RaEKFVuziZFFI-19" value="" style="endArrow=none;html=1;rounded=0;exitX=0.75;exitY=0;exitDx=0;exitDy=0;entryX=0;entryY=1;entryDx=0;entryDy=0;fontFamily=Kahroba RG;fontSize=12;" edge="1" parent="1" source="kXIBeF_RaEKFVuziZFFI-17" target="kXIBeF_RaEKFVuziZFFI-14">
          <mxGeometry relative="1" as="geometry">
            <mxPoint x="350" y="350" as="sourcePoint" />
            <mxPoint x="510" y="350" as="targetPoint" />
          </mxGeometry>
        </mxCell>
        <mxCell id="kXIBeF_RaEKFVuziZFFI-20" value="" style="endArrow=none;html=1;rounded=0;exitX=0.25;exitY=0;exitDx=0;exitDy=0;entryX=1;entryY=1;entryDx=0;entryDy=0;fontFamily=Kahroba RG;fontSize=12;" edge="1" parent="1" source="kXIBeF_RaEKFVuziZFFI-18" target="kXIBeF_RaEKFVuziZFFI-14">
          <mxGeometry relative="1" as="geometry">
            <mxPoint x="625" y="370" as="sourcePoint" />
            <mxPoint x="656" y="344" as="targetPoint" />
          </mxGeometry>
        </mxCell>
        <mxCell id="kXIBeF_RaEKFVuziZFFI-22" value="ID" style="ellipse;whiteSpace=wrap;html=1;align=center;fontStyle=4;fontFamily=Kahroba RG;fontSize=12;" vertex="1" parent="1">
          <mxGeometry x="5" y="170" width="60" height="40" as="geometry" />
        </mxCell>
        <mxCell id="kXIBeF_RaEKFVuziZFFI-23" value="ISBN" style="ellipse;whiteSpace=wrap;html=1;align=center;fontFamily=Kahroba RG;fontSize=12;" vertex="1" parent="1">
          <mxGeometry x="145" y="130" width="70" height="40" as="geometry" />
        </mxCell>
        <mxCell id="kXIBeF_RaEKFVuziZFFI-24" value="Genre" style="ellipse;whiteSpace=wrap;html=1;align=center;fontFamily=Kahroba RG;fontSize=12;" vertex="1" parent="1">
          <mxGeometry x="20" y="130" width="80" height="40" as="geometry" />
        </mxCell>
        <mxCell id="kXIBeF_RaEKFVuziZFFI-25" value="Price" style="ellipse;whiteSpace=wrap;html=1;align=center;fontFamily=Kahroba RG;fontSize=12;" vertex="1" parent="1">
          <mxGeometry x="175" y="170" width="80" height="40" as="geometry" />
        </mxCell>
        <mxCell id="kXIBeF_RaEKFVuziZFFI-26" value="StockQuantity" style="ellipse;whiteSpace=wrap;html=1;align=center;fontFamily=Kahroba RG;fontSize=12;" vertex="1" parent="1">
          <mxGeometry x="10" y="280" width="100" height="40" as="geometry" />
        </mxCell>
        <mxCell id="kXIBeF_RaEKFVuziZFFI-28" value="Wrote" style="shape=rhombus;perimeter=rhombusPerimeter;whiteSpace=wrap;html=1;align=center;fontFamily=Kahroba RG;fontSize=12;" vertex="1" parent="1">
          <mxGeometry x="65" y="330" width="120" height="60" as="geometry" />
        </mxCell>
        <mxCell id="kXIBeF_RaEKFVuziZFFI-29" value="" style="endArrow=none;html=1;rounded=0;entryX=0.5;entryY=0;entryDx=0;entryDy=0;exitX=0.5;exitY=1;exitDx=0;exitDy=0;fontFamily=Kahroba RG;fontSize=12;" edge="1" parent="1" source="kXIBeF_RaEKFVuziZFFI-2" target="kXIBeF_RaEKFVuziZFFI-28">
          <mxGeometry relative="1" as="geometry">
            <mxPoint x="80" y="260" as="sourcePoint" />
            <mxPoint x="240" y="260" as="targetPoint" />
          </mxGeometry>
        </mxCell>
        <mxCell id="kXIBeF_RaEKFVuziZFFI-30" value="N" style="resizable=0;html=1;whiteSpace=wrap;align=right;verticalAlign=bottom;fontFamily=Kahroba RG;fontSize=12;" connectable="0" vertex="1" parent="kXIBeF_RaEKFVuziZFFI-29">
          <mxGeometry x="1" relative="1" as="geometry" />
        </mxCell>
        <mxCell id="kXIBeF_RaEKFVuziZFFI-31" value="" style="endArrow=none;html=1;rounded=0;entryX=0.5;entryY=1;entryDx=0;entryDy=0;exitX=0.5;exitY=0;exitDx=0;exitDy=0;fontFamily=Kahroba RG;fontSize=12;" edge="1" parent="1" source="kXIBeF_RaEKFVuziZFFI-3" target="kXIBeF_RaEKFVuziZFFI-28">
          <mxGeometry relative="1" as="geometry">
            <mxPoint x="80" y="260" as="sourcePoint" />
            <mxPoint x="240" y="260" as="targetPoint" />
          </mxGeometry>
        </mxCell>
        <mxCell id="kXIBeF_RaEKFVuziZFFI-32" value="N" style="resizable=0;html=1;whiteSpace=wrap;align=right;verticalAlign=bottom;fontFamily=Kahroba RG;fontSize=12;" connectable="0" vertex="1" parent="kXIBeF_RaEKFVuziZFFI-31">
          <mxGeometry x="1" relative="1" as="geometry">
            <mxPoint x="-15" y="20" as="offset" />
          </mxGeometry>
        </mxCell>
        <mxCell id="kXIBeF_RaEKFVuziZFFI-33" value="Name" style="ellipse;whiteSpace=wrap;html=1;align=center;fontFamily=Kahroba RG;fontSize=12;" vertex="1" parent="1">
          <mxGeometry x="30" y="472.5" width="60" height="40" as="geometry" />
        </mxCell>
        <mxCell id="kXIBeF_RaEKFVuziZFFI-35" value="&lt;span&gt;Review&lt;/span&gt;" style="shape=ext;margin=3;double=1;whiteSpace=wrap;html=1;align=center;fontFamily=Kahroba RG;fontSize=12;" vertex="1" parent="1">
          <mxGeometry x="360" y="220" width="100" height="40" as="geometry" />
        </mxCell>
        <mxCell id="kXIBeF_RaEKFVuziZFFI-36" value="is_about" style="shape=rhombus;double=1;perimeter=rhombusPerimeter;whiteSpace=wrap;html=1;align=center;fontFamily=Kahroba RG;fontSize=12;" vertex="1" parent="1">
          <mxGeometry x="215" y="215" width="90" height="50" as="geometry" />
        </mxCell>
        <mxCell id="kXIBeF_RaEKFVuziZFFI-37" value="" style="endArrow=none;html=1;rounded=0;exitX=1;exitY=0.5;exitDx=0;exitDy=0;entryX=0;entryY=0.5;entryDx=0;entryDy=0;fontFamily=Kahroba RG;fontSize=12;" edge="1" parent="1" source="kXIBeF_RaEKFVuziZFFI-2" target="kXIBeF_RaEKFVuziZFFI-36">
          <mxGeometry relative="1" as="geometry">
            <mxPoint x="220" y="300" as="sourcePoint" />
            <mxPoint x="200" y="260" as="targetPoint" />
          </mxGeometry>
        </mxCell>
        <mxCell id="kXIBeF_RaEKFVuziZFFI-38" value="1" style="resizable=0;html=1;whiteSpace=wrap;align=right;verticalAlign=bottom;fontFamily=Kahroba RG;fontSize=12;" connectable="0" vertex="1" parent="kXIBeF_RaEKFVuziZFFI-37">
          <mxGeometry x="1" relative="1" as="geometry" />
        </mxCell>
        <mxCell id="kXIBeF_RaEKFVuziZFFI-39" value="" style="shape=link;html=1;rounded=0;entryX=1;entryY=0.5;entryDx=0;entryDy=0;exitX=0;exitY=0.5;exitDx=0;exitDy=0;fontFamily=Kahroba RG;fontSize=12;" edge="1" parent="1" source="kXIBeF_RaEKFVuziZFFI-35" target="kXIBeF_RaEKFVuziZFFI-36">
          <mxGeometry relative="1" as="geometry">
            <mxPoint x="150" y="280" as="sourcePoint" />
            <mxPoint x="310" y="280" as="targetPoint" />
          </mxGeometry>
        </mxCell>
        <mxCell id="kXIBeF_RaEKFVuziZFFI-40" value="N" style="resizable=0;html=1;whiteSpace=wrap;align=right;verticalAlign=bottom;fontFamily=Kahroba RG;fontSize=12;" connectable="0" vertex="1" parent="kXIBeF_RaEKFVuziZFFI-39">
          <mxGeometry x="1" relative="1" as="geometry" />
        </mxCell>
        <mxCell id="kXIBeF_RaEKFVuziZFFI-41" value="Reviews" style="shape=rhombus;double=1;perimeter=rhombusPerimeter;whiteSpace=wrap;html=1;align=center;fontFamily=Kahroba RG;fontSize=12;" vertex="1" parent="1">
          <mxGeometry x="490" y="215" width="90" height="50" as="geometry" />
        </mxCell>
        <mxCell id="kXIBeF_RaEKFVuziZFFI-42" value="" style="shape=link;html=1;rounded=0;exitX=1;exitY=0.5;exitDx=0;exitDy=0;entryX=0;entryY=0.5;entryDx=0;entryDy=0;fontFamily=Kahroba RG;fontSize=12;" edge="1" parent="1" source="kXIBeF_RaEKFVuziZFFI-35" target="kXIBeF_RaEKFVuziZFFI-41">
          <mxGeometry relative="1" as="geometry">
            <mxPoint x="250" y="270" as="sourcePoint" />
            <mxPoint x="410" y="270" as="targetPoint" />
          </mxGeometry>
        </mxCell>
        <mxCell id="kXIBeF_RaEKFVuziZFFI-43" value="N" style="resizable=0;html=1;whiteSpace=wrap;align=right;verticalAlign=bottom;fontFamily=Kahroba RG;fontSize=12;" connectable="0" vertex="1" parent="kXIBeF_RaEKFVuziZFFI-42">
          <mxGeometry x="1" relative="1" as="geometry" />
        </mxCell>
        <mxCell id="kXIBeF_RaEKFVuziZFFI-44" value="" style="endArrow=none;html=1;rounded=0;exitX=0;exitY=0.5;exitDx=0;exitDy=0;entryX=1;entryY=0.5;entryDx=0;entryDy=0;fontFamily=Kahroba RG;fontSize=12;" edge="1" parent="1" source="kXIBeF_RaEKFVuziZFFI-1" target="kXIBeF_RaEKFVuziZFFI-41">
          <mxGeometry relative="1" as="geometry">
            <mxPoint x="250" y="270" as="sourcePoint" />
            <mxPoint x="410" y="270" as="targetPoint" />
          </mxGeometry>
        </mxCell>
        <mxCell id="kXIBeF_RaEKFVuziZFFI-45" value="1" style="resizable=0;html=1;whiteSpace=wrap;align=right;verticalAlign=bottom;fontFamily=Kahroba RG;fontSize=12;" connectable="0" vertex="1" parent="kXIBeF_RaEKFVuziZFFI-44">
          <mxGeometry x="1" relative="1" as="geometry" />
        </mxCell>
        <mxCell id="kXIBeF_RaEKFVuziZFFI-46" value="Rating" style="ellipse;whiteSpace=wrap;html=1;align=center;fontFamily=Kahroba RG;fontSize=12;" vertex="1" parent="1">
          <mxGeometry x="270" y="170" width="100" height="40" as="geometry" />
        </mxCell>
        <mxCell id="kXIBeF_RaEKFVuziZFFI-47" value="ReviewText" style="ellipse;whiteSpace=wrap;html=1;align=center;fontFamily=Kahroba RG;fontSize=12;" vertex="1" parent="1">
          <mxGeometry x="427.5" y="170" width="100" height="40" as="geometry" />
        </mxCell>
        <mxCell id="kXIBeF_RaEKFVuziZFFI-48" value="ReviewDate" style="ellipse;whiteSpace=wrap;html=1;align=center;fontFamily=Kahroba RG;fontSize=12;" vertex="1" parent="1">
          <mxGeometry x="380" y="90" width="100" height="40" as="geometry" />
        </mxCell>
        <mxCell id="kXIBeF_RaEKFVuziZFFI-49" value="Votes" style="shape=rhombus;perimeter=rhombusPerimeter;whiteSpace=wrap;html=1;align=center;fontFamily=Kahroba RG;fontSize=12;" vertex="1" parent="1">
          <mxGeometry x="490" y="280" width="90" height="50" as="geometry" />
        </mxCell>
        <mxCell id="kXIBeF_RaEKFVuziZFFI-50" value="" style="endArrow=none;html=1;rounded=0;exitX=0.5;exitY=1;exitDx=0;exitDy=0;entryX=0;entryY=0.5;entryDx=0;entryDy=0;fontFamily=Kahroba RG;fontSize=12;" edge="1" parent="1" source="kXIBeF_RaEKFVuziZFFI-35" target="kXIBeF_RaEKFVuziZFFI-49">
          <mxGeometry relative="1" as="geometry">
            <mxPoint x="270" y="280" as="sourcePoint" />
            <mxPoint x="430" y="280" as="targetPoint" />
            <Array as="points">
              <mxPoint x="410" y="305" />
            </Array>
          </mxGeometry>
        </mxCell>
        <mxCell id="kXIBeF_RaEKFVuziZFFI-51" value="N" style="resizable=0;html=1;whiteSpace=wrap;align=right;verticalAlign=bottom;fontFamily=Kahroba RG;fontSize=12;" connectable="0" vertex="1" parent="kXIBeF_RaEKFVuziZFFI-50">
          <mxGeometry x="1" relative="1" as="geometry" />
        </mxCell>
        <mxCell id="kXIBeF_RaEKFVuziZFFI-52" value="" style="endArrow=none;html=1;rounded=0;exitX=0.25;exitY=1;exitDx=0;exitDy=0;entryX=1;entryY=0.5;entryDx=0;entryDy=0;fontFamily=Kahroba RG;fontSize=12;" edge="1" parent="1" source="kXIBeF_RaEKFVuziZFFI-1" target="kXIBeF_RaEKFVuziZFFI-49">
          <mxGeometry relative="1" as="geometry">
            <mxPoint x="270" y="280" as="sourcePoint" />
            <mxPoint x="430" y="280" as="targetPoint" />
            <Array as="points">
              <mxPoint x="635" y="305" />
            </Array>
          </mxGeometry>
        </mxCell>
        <mxCell id="kXIBeF_RaEKFVuziZFFI-53" value="N" style="resizable=0;html=1;whiteSpace=wrap;align=right;verticalAlign=bottom;fontFamily=Kahroba RG;fontSize=12;" connectable="0" vertex="1" parent="kXIBeF_RaEKFVuziZFFI-52">
          <mxGeometry x="1" relative="1" as="geometry" />
        </mxCell>
        <mxCell id="kXIBeF_RaEKFVuziZFFI-54" value="VoteType" style="ellipse;whiteSpace=wrap;html=1;align=center;fontFamily=Kahroba RG;fontSize=12;" vertex="1" parent="1">
          <mxGeometry x="420" y="320" width="80" height="40" as="geometry" />
        </mxCell>
        <mxCell id="kXIBeF_RaEKFVuziZFFI-56" value="Places" style="shape=rhombus;double=1;perimeter=rhombusPerimeter;whiteSpace=wrap;html=1;align=center;fontFamily=Kahroba RG;fontSize=12;" vertex="1" parent="1">
          <mxGeometry x="742.5" y="475" width="90" height="50" as="geometry" />
        </mxCell>
        <mxCell id="kXIBeF_RaEKFVuziZFFI-57" value="Order" style="shape=ext;margin=3;double=1;whiteSpace=wrap;html=1;align=center;fontFamily=Kahroba RG;fontSize=12;" vertex="1" parent="1">
          <mxGeometry x="600" y="480" width="100" height="40" as="geometry" />
        </mxCell>
        <mxCell id="kXIBeF_RaEKFVuziZFFI-58" value="" style="shape=link;html=1;rounded=0;entryX=0;entryY=0.5;entryDx=0;entryDy=0;exitX=1;exitY=0.5;exitDx=0;exitDy=0;fontFamily=Kahroba RG;fontSize=12;" edge="1" parent="1" source="kXIBeF_RaEKFVuziZFFI-57" target="kXIBeF_RaEKFVuziZFFI-56">
          <mxGeometry relative="1" as="geometry">
            <mxPoint x="300" y="395" as="sourcePoint" />
            <mxPoint x="460" y="395" as="targetPoint" />
          </mxGeometry>
        </mxCell>
        <mxCell id="kXIBeF_RaEKFVuziZFFI-59" value="N" style="resizable=0;html=1;whiteSpace=wrap;align=right;verticalAlign=bottom;fontFamily=Kahroba RG;fontSize=12;" connectable="0" vertex="1" parent="kXIBeF_RaEKFVuziZFFI-58">
          <mxGeometry x="1" relative="1" as="geometry" />
        </mxCell>
        <mxCell id="kXIBeF_RaEKFVuziZFFI-60" value="" style="endArrow=none;html=1;rounded=0;exitX=1;exitY=0.5;exitDx=0;exitDy=0;entryX=0.5;entryY=0;entryDx=0;entryDy=0;fontFamily=Kahroba RG;fontSize=12;" edge="1" parent="1" source="kXIBeF_RaEKFVuziZFFI-1" target="kXIBeF_RaEKFVuziZFFI-56">
          <mxGeometry relative="1" as="geometry">
            <mxPoint x="310" y="360" as="sourcePoint" />
            <mxPoint x="470" y="360" as="targetPoint" />
            <Array as="points">
              <mxPoint x="788" y="240" />
            </Array>
          </mxGeometry>
        </mxCell>
        <mxCell id="kXIBeF_RaEKFVuziZFFI-61" value="1" style="resizable=0;html=1;whiteSpace=wrap;align=right;verticalAlign=bottom;fontFamily=Kahroba RG;fontSize=12;" connectable="0" vertex="1" parent="kXIBeF_RaEKFVuziZFFI-60">
          <mxGeometry x="1" relative="1" as="geometry" />
        </mxCell>
        <mxCell id="kXIBeF_RaEKFVuziZFFI-62" value="Contains" style="shape=rhombus;double=1;perimeter=rhombusPerimeter;whiteSpace=wrap;html=1;align=center;fontFamily=Kahroba RG;fontSize=12;" vertex="1" parent="1">
          <mxGeometry x="460" y="472.5" width="90" height="55" as="geometry" />
        </mxCell>
        <mxCell id="kXIBeF_RaEKFVuziZFFI-63" value="" style="shape=link;html=1;rounded=0;entryX=1;entryY=0.5;entryDx=0;entryDy=0;exitX=0;exitY=0.5;exitDx=0;exitDy=0;fontFamily=Kahroba RG;fontSize=12;" edge="1" parent="1" source="kXIBeF_RaEKFVuziZFFI-57" target="kXIBeF_RaEKFVuziZFFI-62">
          <mxGeometry relative="1" as="geometry">
            <mxPoint x="300" y="395" as="sourcePoint" />
            <mxPoint x="460" y="395" as="targetPoint" />
          </mxGeometry>
        </mxCell>
        <mxCell id="kXIBeF_RaEKFVuziZFFI-64" value="N" style="resizable=0;html=1;whiteSpace=wrap;align=right;verticalAlign=bottom;fontFamily=Kahroba RG;fontSize=12;" connectable="0" vertex="1" parent="kXIBeF_RaEKFVuziZFFI-63">
          <mxGeometry x="1" relative="1" as="geometry">
            <mxPoint y="-5" as="offset" />
          </mxGeometry>
        </mxCell>
        <mxCell id="kXIBeF_RaEKFVuziZFFI-65" value="" style="endArrow=none;html=1;rounded=0;exitX=1;exitY=0.75;exitDx=0;exitDy=0;entryX=0;entryY=0.5;entryDx=0;entryDy=0;fontFamily=Kahroba RG;fontSize=12;" edge="1" parent="1" source="kXIBeF_RaEKFVuziZFFI-2" target="kXIBeF_RaEKFVuziZFFI-62">
          <mxGeometry relative="1" as="geometry">
            <mxPoint x="350" y="430" as="sourcePoint" />
            <mxPoint x="510" y="430" as="targetPoint" />
            <Array as="points">
              <mxPoint x="360" y="310" />
              <mxPoint x="360" y="500" />
            </Array>
          </mxGeometry>
        </mxCell>
        <mxCell id="kXIBeF_RaEKFVuziZFFI-66" value="N" style="resizable=0;html=1;whiteSpace=wrap;align=right;verticalAlign=bottom;fontFamily=Kahroba RG;fontSize=12;" connectable="0" vertex="1" parent="kXIBeF_RaEKFVuziZFFI-65">
          <mxGeometry x="1" relative="1" as="geometry" />
        </mxCell>
        <mxCell id="kXIBeF_RaEKFVuziZFFI-67" value="Status" style="ellipse;whiteSpace=wrap;html=1;align=center;fontFamily=Kahroba RG;fontSize=12;" vertex="1" parent="1">
          <mxGeometry x="627.5" y="420" width="70" height="40" as="geometry" />
        </mxCell>
        <mxCell id="kXIBeF_RaEKFVuziZFFI-68" value="OrderDate" style="ellipse;whiteSpace=wrap;html=1;align=center;fontFamily=Kahroba RG;fontSize=12;" vertex="1" parent="1">
          <mxGeometry x="527.5" y="530" width="100" height="40" as="geometry" />
        </mxCell>
        <mxCell id="kXIBeF_RaEKFVuziZFFI-69" value="TotalAmount" style="ellipse;whiteSpace=wrap;html=1;align=center;fontFamily=Kahroba RG;fontSize=12;" vertex="1" parent="1">
          <mxGeometry x="677.5" y="530" width="90" height="40" as="geometry" />
        </mxCell>
        <mxCell id="kXIBeF_RaEKFVuziZFFI-70" value="Related" style="shape=rhombus;double=1;perimeter=rhombusPerimeter;whiteSpace=wrap;html=1;align=center;fontFamily=Kahroba RG;fontSize=12;" vertex="1" parent="1">
          <mxGeometry x="605" y="580" width="90" height="50" as="geometry" />
        </mxCell>
        <mxCell id="kXIBeF_RaEKFVuziZFFI-71" value="&lt;span&gt;Payment&lt;/span&gt;" style="shape=ext;margin=3;double=1;whiteSpace=wrap;html=1;align=center;fontFamily=Kahroba RG;fontSize=12;" vertex="1" parent="1">
          <mxGeometry x="600" y="660" width="100" height="40" as="geometry" />
        </mxCell>
        <mxCell id="kXIBeF_RaEKFVuziZFFI-72" value="&lt;span&gt;PaymentMethod&lt;/span&gt;" style="ellipse;whiteSpace=wrap;html=1;align=center;fontFamily=Kahroba RG;fontSize=12;" vertex="1" parent="1">
          <mxGeometry x="505" y="620" width="100" height="40" as="geometry" />
        </mxCell>
        <mxCell id="kXIBeF_RaEKFVuziZFFI-73" value="PaymentDate" style="ellipse;whiteSpace=wrap;html=1;align=center;fontFamily=Kahroba RG;fontSize=12;" vertex="1" parent="1">
          <mxGeometry x="710" y="650" width="100" height="40" as="geometry" />
        </mxCell>
        <mxCell id="kXIBeF_RaEKFVuziZFFI-79" value="" style="endArrow=none;html=1;rounded=0;exitX=0.5;exitY=1;exitDx=0;exitDy=0;entryX=0.5;entryY=0;entryDx=0;entryDy=0;fontFamily=Kahroba RG;fontSize=12;" edge="1" parent="1" source="kXIBeF_RaEKFVuziZFFI-57" target="kXIBeF_RaEKFVuziZFFI-70">
          <mxGeometry relative="1" as="geometry">
            <mxPoint x="537.5" y="580" as="sourcePoint" />
            <mxPoint x="697.5" y="580" as="targetPoint" />
          </mxGeometry>
        </mxCell>
        <mxCell id="kXIBeF_RaEKFVuziZFFI-80" value="1" style="resizable=0;html=1;whiteSpace=wrap;align=right;verticalAlign=bottom;fontFamily=Kahroba RG;fontSize=12;" connectable="0" vertex="1" parent="kXIBeF_RaEKFVuziZFFI-79">
          <mxGeometry x="1" relative="1" as="geometry" />
        </mxCell>
        <mxCell id="kXIBeF_RaEKFVuziZFFI-82" value="" style="shape=link;html=1;rounded=0;entryX=0.5;entryY=1;entryDx=0;entryDy=0;exitX=0.5;exitY=0;exitDx=0;exitDy=0;fontFamily=Kahroba RG;fontSize=12;" edge="1" parent="1" source="kXIBeF_RaEKFVuziZFFI-71" target="kXIBeF_RaEKFVuziZFFI-70">
          <mxGeometry relative="1" as="geometry">
            <mxPoint x="626.15" y="670" as="sourcePoint" />
            <mxPoint x="627.4999999999999" y="637.65" as="targetPoint" />
          </mxGeometry>
        </mxCell>
        <mxCell id="kXIBeF_RaEKFVuziZFFI-83" value="1" style="resizable=0;html=1;whiteSpace=wrap;align=right;verticalAlign=bottom;fontFamily=Kahroba RG;fontSize=12;" connectable="0" vertex="1" parent="kXIBeF_RaEKFVuziZFFI-82">
          <mxGeometry x="1" relative="1" as="geometry">
            <mxPoint x="-2" y="10" as="offset" />
          </mxGeometry>
        </mxCell>
        <mxCell id="kXIBeF_RaEKFVuziZFFI-84" value="Creates" style="shape=rhombus;double=1;perimeter=rhombusPerimeter;whiteSpace=wrap;html=1;align=center;fontFamily=Kahroba RG;fontSize=12;" vertex="1" parent="1">
          <mxGeometry x="790" y="690" width="120" height="60" as="geometry" />
        </mxCell>
        <mxCell id="kXIBeF_RaEKFVuziZFFI-85" value="" style="endArrow=none;html=1;rounded=0;exitX=1;exitY=0.75;exitDx=0;exitDy=0;entryX=0.5;entryY=0;entryDx=0;entryDy=0;fontFamily=Kahroba RG;fontSize=12;" edge="1" parent="1" source="kXIBeF_RaEKFVuziZFFI-1" target="kXIBeF_RaEKFVuziZFFI-84">
          <mxGeometry relative="1" as="geometry">
            <mxPoint x="440" y="480" as="sourcePoint" />
            <mxPoint x="600" y="480" as="targetPoint" />
            <Array as="points">
              <mxPoint x="850" y="250" />
            </Array>
          </mxGeometry>
        </mxCell>
        <mxCell id="kXIBeF_RaEKFVuziZFFI-86" value="1" style="resizable=0;html=1;whiteSpace=wrap;align=right;verticalAlign=bottom;fontFamily=Kahroba RG;fontSize=12;" connectable="0" vertex="1" parent="kXIBeF_RaEKFVuziZFFI-85">
          <mxGeometry x="1" relative="1" as="geometry" />
        </mxCell>
        <mxCell id="kXIBeF_RaEKFVuziZFFI-87" value="Includes" style="shape=rhombus;double=1;perimeter=rhombusPerimeter;whiteSpace=wrap;html=1;align=center;fontFamily=Kahroba RG;fontSize=12;" vertex="1" parent="1">
          <mxGeometry x="260" y="690" width="120" height="60" as="geometry" />
        </mxCell>
        <mxCell id="kXIBeF_RaEKFVuziZFFI-88" value="&lt;span&gt;Wishlist&lt;/span&gt;" style="shape=ext;margin=3;double=1;whiteSpace=wrap;html=1;align=center;fontFamily=Kahroba RG;fontSize=12;" vertex="1" parent="1">
          <mxGeometry x="460" y="700" width="100" height="40" as="geometry" />
        </mxCell>
        <mxCell id="kXIBeF_RaEKFVuziZFFI-89" value="" style="shape=link;html=1;rounded=0;entryX=1;entryY=0.5;entryDx=0;entryDy=0;exitX=0;exitY=0.5;exitDx=0;exitDy=0;fontFamily=Kahroba RG;fontSize=12;" edge="1" parent="1" source="kXIBeF_RaEKFVuziZFFI-84" target="kXIBeF_RaEKFVuziZFFI-88">
          <mxGeometry relative="1" as="geometry">
            <mxPoint x="380" y="560" as="sourcePoint" />
            <mxPoint x="540" y="560" as="targetPoint" />
          </mxGeometry>
        </mxCell>
        <mxCell id="kXIBeF_RaEKFVuziZFFI-90" value="N" style="resizable=0;html=1;whiteSpace=wrap;align=right;verticalAlign=bottom;fontFamily=Kahroba RG;fontSize=12;" connectable="0" vertex="1" parent="kXIBeF_RaEKFVuziZFFI-89">
          <mxGeometry x="1" relative="1" as="geometry">
            <mxPoint x="18" as="offset" />
          </mxGeometry>
        </mxCell>
        <mxCell id="kXIBeF_RaEKFVuziZFFI-91" value="" style="shape=link;html=1;rounded=0;entryX=0;entryY=0.5;entryDx=0;entryDy=0;exitX=1;exitY=0.5;exitDx=0;exitDy=0;fontFamily=Kahroba RG;fontSize=12;" edge="1" parent="1" source="kXIBeF_RaEKFVuziZFFI-87" target="kXIBeF_RaEKFVuziZFFI-88">
          <mxGeometry relative="1" as="geometry">
            <mxPoint x="800" y="730" as="sourcePoint" />
            <mxPoint x="570" y="730" as="targetPoint" />
          </mxGeometry>
        </mxCell>
        <mxCell id="kXIBeF_RaEKFVuziZFFI-92" value="N" style="resizable=0;html=1;whiteSpace=wrap;align=right;verticalAlign=bottom;fontFamily=Kahroba RG;fontSize=12;" connectable="0" vertex="1" parent="kXIBeF_RaEKFVuziZFFI-91">
          <mxGeometry x="1" relative="1" as="geometry" />
        </mxCell>
        <mxCell id="kXIBeF_RaEKFVuziZFFI-93" value="" style="endArrow=none;html=1;rounded=0;exitX=0.75;exitY=1;exitDx=0;exitDy=0;entryX=0;entryY=0.5;entryDx=0;entryDy=0;fontFamily=Kahroba RG;fontSize=12;" edge="1" parent="1" source="kXIBeF_RaEKFVuziZFFI-2" target="kXIBeF_RaEKFVuziZFFI-87">
          <mxGeometry relative="1" as="geometry">
            <mxPoint x="290" y="510" as="sourcePoint" />
            <mxPoint x="450" y="510" as="targetPoint" />
            <Array as="points">
              <mxPoint x="240" y="420" />
              <mxPoint x="240" y="720" />
            </Array>
          </mxGeometry>
        </mxCell>
        <mxCell id="kXIBeF_RaEKFVuziZFFI-94" value="N" style="resizable=0;html=1;whiteSpace=wrap;align=right;verticalAlign=bottom;fontFamily=Kahroba RG;fontSize=12;" connectable="0" vertex="1" parent="kXIBeF_RaEKFVuziZFFI-93">
          <mxGeometry x="1" relative="1" as="geometry" />
        </mxCell>
        <mxCell id="kXIBeF_RaEKFVuziZFFI-95" value="&lt;span&gt;WishlistName&lt;/span&gt;" style="ellipse;whiteSpace=wrap;html=1;align=center;fontFamily=Kahroba RG;fontSize=12;" vertex="1" parent="1">
          <mxGeometry x="340" y="650" width="100" height="40" as="geometry" />
        </mxCell>
        <mxCell id="kXIBeF_RaEKFVuziZFFI-96" value="&lt;span&gt;IsPublic&amp;nbsp;&lt;/span&gt;" style="ellipse;whiteSpace=wrap;html=1;align=center;fontFamily=Kahroba RG;fontSize=12;" vertex="1" parent="1">
          <mxGeometry x="340" y="600" width="100" height="40" as="geometry" />
        </mxCell>
        <mxCell id="kXIBeF_RaEKFVuziZFFI-97" value="&lt;span&gt;WishlistID&amp;nbsp;&lt;/span&gt;" style="ellipse;whiteSpace=wrap;html=1;align=center;fontStyle=4;fontFamily=Kahroba RG;fontSize=12;" vertex="1" parent="1">
          <mxGeometry x="440" y="580" width="100" height="40" as="geometry" />
        </mxCell>
        <mxCell id="kXIBeF_RaEKFVuziZFFI-98" value="&lt;span&gt;ReviewID&amp;nbsp;&lt;/span&gt;" style="ellipse;whiteSpace=wrap;html=1;align=center;fontStyle=4;fontFamily=Kahroba RG;fontSize=12;" vertex="1" parent="1">
          <mxGeometry x="280" y="120" width="100" height="40" as="geometry" />
        </mxCell>
        <mxCell id="kXIBeF_RaEKFVuziZFFI-99" value="&lt;span&gt;PaymentID&amp;nbsp;&lt;/span&gt;" style="ellipse;whiteSpace=wrap;html=1;align=center;fontStyle=4;fontFamily=Kahroba RG;fontSize=12;" vertex="1" parent="1">
          <mxGeometry x="697.5" y="600" width="100" height="40" as="geometry" />
        </mxCell>
        <mxCell id="kXIBeF_RaEKFVuziZFFI-100" value="&lt;span&gt;OrderID&amp;nbsp;&lt;/span&gt;" style="ellipse;whiteSpace=wrap;html=1;align=center;fontStyle=4;fontFamily=Kahroba RG;fontSize=12;" vertex="1" parent="1">
          <mxGeometry x="520" y="420" width="100" height="40" as="geometry" />
        </mxCell>
        <mxCell id="kXIBeF_RaEKFVuziZFFI-101" value="" style="endArrow=none;html=1;rounded=0;exitX=1;exitY=1;exitDx=0;exitDy=0;entryX=0;entryY=0;entryDx=0;entryDy=0;fontFamily=Kahroba RG;" edge="1" parent="1" source="kXIBeF_RaEKFVuziZFFI-22" target="kXIBeF_RaEKFVuziZFFI-2">
          <mxGeometry relative="1" as="geometry">
            <mxPoint x="90" y="240" as="sourcePoint" />
            <mxPoint x="250" y="240" as="targetPoint" />
          </mxGeometry>
        </mxCell>
        <mxCell id="kXIBeF_RaEKFVuziZFFI-102" value="" style="endArrow=none;html=1;rounded=0;exitX=0.68;exitY=0.981;exitDx=0;exitDy=0;entryX=0.25;entryY=0;entryDx=0;entryDy=0;exitPerimeter=0;fontFamily=Kahroba RG;" edge="1" parent="1" source="kXIBeF_RaEKFVuziZFFI-24" target="kXIBeF_RaEKFVuziZFFI-2">
          <mxGeometry relative="1" as="geometry">
            <mxPoint x="66" y="214" as="sourcePoint" />
            <mxPoint x="85" y="230" as="targetPoint" />
          </mxGeometry>
        </mxCell>
        <mxCell id="kXIBeF_RaEKFVuziZFFI-103" value="" style="endArrow=none;html=1;rounded=0;exitX=0.258;exitY=0.956;exitDx=0;exitDy=0;entryX=0.659;entryY=-0.014;entryDx=0;entryDy=0;exitPerimeter=0;entryPerimeter=0;fontFamily=Kahroba RG;" edge="1" parent="1" source="kXIBeF_RaEKFVuziZFFI-23" target="kXIBeF_RaEKFVuziZFFI-2">
          <mxGeometry relative="1" as="geometry">
            <mxPoint x="104" y="179" as="sourcePoint" />
            <mxPoint x="110" y="230" as="targetPoint" />
          </mxGeometry>
        </mxCell>
        <mxCell id="kXIBeF_RaEKFVuziZFFI-104" value="" style="endArrow=none;html=1;rounded=0;exitX=0;exitY=1;exitDx=0;exitDy=0;entryX=1;entryY=0;entryDx=0;entryDy=0;fontFamily=Kahroba RG;" edge="1" parent="1" source="kXIBeF_RaEKFVuziZFFI-25" target="kXIBeF_RaEKFVuziZFFI-2">
          <mxGeometry relative="1" as="geometry">
            <mxPoint x="158" y="178" as="sourcePoint" />
            <mxPoint x="151" y="229" as="targetPoint" />
          </mxGeometry>
        </mxCell>
        <mxCell id="kXIBeF_RaEKFVuziZFFI-105" value="" style="endArrow=none;html=1;rounded=0;exitX=0.25;exitY=1;exitDx=0;exitDy=0;entryX=0.717;entryY=0.026;entryDx=0;entryDy=0;entryPerimeter=0;fontFamily=Kahroba RG;" edge="1" parent="1" source="kXIBeF_RaEKFVuziZFFI-2" target="kXIBeF_RaEKFVuziZFFI-26">
          <mxGeometry relative="1" as="geometry">
            <mxPoint x="197" y="214" as="sourcePoint" />
            <mxPoint x="185" y="230" as="targetPoint" />
          </mxGeometry>
        </mxCell>
        <mxCell id="kXIBeF_RaEKFVuziZFFI-106" value="" style="endArrow=none;html=1;rounded=0;exitX=1;exitY=1;exitDx=0;exitDy=0;entryX=0.25;entryY=0;entryDx=0;entryDy=0;fontFamily=Kahroba RG;" edge="1" parent="1" source="kXIBeF_RaEKFVuziZFFI-46" target="kXIBeF_RaEKFVuziZFFI-35">
          <mxGeometry relative="1" as="geometry">
            <mxPoint x="110" y="270" as="sourcePoint" />
            <mxPoint x="92" y="291" as="targetPoint" />
          </mxGeometry>
        </mxCell>
        <mxCell id="kXIBeF_RaEKFVuziZFFI-107" value="" style="endArrow=none;html=1;rounded=0;exitX=1;exitY=0;exitDx=0;exitDy=0;entryX=0.25;entryY=1;entryDx=0;entryDy=0;fontFamily=Kahroba RG;" edge="1" parent="1" source="kXIBeF_RaEKFVuziZFFI-33" target="kXIBeF_RaEKFVuziZFFI-3">
          <mxGeometry relative="1" as="geometry">
            <mxPoint x="50" y="370" as="sourcePoint" />
            <mxPoint x="210" y="370" as="targetPoint" />
          </mxGeometry>
        </mxCell>
        <mxCell id="kXIBeF_RaEKFVuziZFFI-108" value="" style="endArrow=none;html=1;rounded=0;exitX=1;exitY=1;exitDx=0;exitDy=0;entryX=0.371;entryY=0.004;entryDx=0;entryDy=0;entryPerimeter=0;fontFamily=Kahroba RG;" edge="1" parent="1" source="kXIBeF_RaEKFVuziZFFI-98" target="kXIBeF_RaEKFVuziZFFI-35">
          <mxGeometry relative="1" as="geometry">
            <mxPoint x="360" y="210" as="sourcePoint" />
            <mxPoint x="520" y="210" as="targetPoint" />
          </mxGeometry>
        </mxCell>
        <mxCell id="kXIBeF_RaEKFVuziZFFI-109" value="" style="endArrow=none;html=1;rounded=0;exitX=0.43;exitY=1.01;exitDx=0;exitDy=0;entryX=0.573;entryY=-0.005;entryDx=0;entryDy=0;entryPerimeter=0;exitPerimeter=0;fontFamily=Kahroba RG;" edge="1" parent="1" source="kXIBeF_RaEKFVuziZFFI-48" target="kXIBeF_RaEKFVuziZFFI-35">
          <mxGeometry relative="1" as="geometry">
            <mxPoint x="375" y="164" as="sourcePoint" />
            <mxPoint x="407" y="230" as="targetPoint" />
          </mxGeometry>
        </mxCell>
        <mxCell id="kXIBeF_RaEKFVuziZFFI-110" value="" style="endArrow=none;html=1;rounded=0;exitX=0.295;exitY=0.943;exitDx=0;exitDy=0;entryX=0.75;entryY=0;entryDx=0;entryDy=0;exitPerimeter=0;fontFamily=Kahroba RG;" edge="1" parent="1" source="kXIBeF_RaEKFVuziZFFI-47" target="kXIBeF_RaEKFVuziZFFI-35">
          <mxGeometry relative="1" as="geometry">
            <mxPoint x="433" y="140" as="sourcePoint" />
            <mxPoint x="427" y="230" as="targetPoint" />
          </mxGeometry>
        </mxCell>
        <mxCell id="kXIBeF_RaEKFVuziZFFI-111" value="" style="endArrow=none;html=1;rounded=0;exitX=0.25;exitY=0;exitDx=0;exitDy=0;entryX=1;entryY=1;entryDx=0;entryDy=0;fontFamily=Kahroba RG;" edge="1" parent="1" source="kXIBeF_RaEKFVuziZFFI-1" target="kXIBeF_RaEKFVuziZFFI-8">
          <mxGeometry relative="1" as="geometry">
            <mxPoint x="467" y="218" as="sourcePoint" />
            <mxPoint x="445" y="230" as="targetPoint" />
          </mxGeometry>
        </mxCell>
        <mxCell id="kXIBeF_RaEKFVuziZFFI-112" value="" style="endArrow=none;html=1;rounded=0;exitX=0.745;exitY=0.938;exitDx=0;exitDy=0;exitPerimeter=0;entryX=0.423;entryY=0.012;entryDx=0;entryDy=0;entryPerimeter=0;fontFamily=Kahroba RG;" edge="1" parent="1" source="kXIBeF_RaEKFVuziZFFI-9" target="kXIBeF_RaEKFVuziZFFI-1">
          <mxGeometry relative="1" as="geometry">
            <mxPoint x="520" y="240" as="sourcePoint" />
            <mxPoint x="680" y="240" as="targetPoint" />
          </mxGeometry>
        </mxCell>
        <mxCell id="kXIBeF_RaEKFVuziZFFI-113" value="" style="endArrow=none;html=1;rounded=0;exitX=0.5;exitY=1;exitDx=0;exitDy=0;entryX=0.75;entryY=0;entryDx=0;entryDy=0;fontFamily=Kahroba RG;" edge="1" parent="1" source="kXIBeF_RaEKFVuziZFFI-10" target="kXIBeF_RaEKFVuziZFFI-1">
          <mxGeometry relative="1" as="geometry">
            <mxPoint x="635" y="158" as="sourcePoint" />
            <mxPoint x="662" y="230" as="targetPoint" />
          </mxGeometry>
        </mxCell>
        <mxCell id="kXIBeF_RaEKFVuziZFFI-114" value="" style="endArrow=none;html=1;rounded=0;exitX=0.5;exitY=1;exitDx=0;exitDy=0;entryX=0.5;entryY=0;entryDx=0;entryDy=0;fontFamily=Kahroba RG;" edge="1" parent="1" source="kXIBeF_RaEKFVuziZFFI-13" target="kXIBeF_RaEKFVuziZFFI-10">
          <mxGeometry relative="1" as="geometry">
            <mxPoint x="720" y="190" as="sourcePoint" />
            <mxPoint x="695" y="230" as="targetPoint" />
          </mxGeometry>
        </mxCell>
        <mxCell id="kXIBeF_RaEKFVuziZFFI-115" value="" style="endArrow=none;html=1;rounded=0;exitX=0.078;exitY=0.754;exitDx=0;exitDy=0;entryX=1;entryY=0;entryDx=0;entryDy=0;exitPerimeter=0;fontFamily=Kahroba RG;" edge="1" parent="1" source="kXIBeF_RaEKFVuziZFFI-11" target="kXIBeF_RaEKFVuziZFFI-10">
          <mxGeometry relative="1" as="geometry">
            <mxPoint x="717" y="130" as="sourcePoint" />
            <mxPoint x="720" y="150" as="targetPoint" />
          </mxGeometry>
        </mxCell>
        <mxCell id="kXIBeF_RaEKFVuziZFFI-116" value="" style="endArrow=none;html=1;rounded=0;exitX=0;exitY=0;exitDx=0;exitDy=0;entryX=1;entryY=1;entryDx=0;entryDy=0;fontFamily=Kahroba RG;" edge="1" parent="1" source="kXIBeF_RaEKFVuziZFFI-12" target="kXIBeF_RaEKFVuziZFFI-10">
          <mxGeometry relative="1" as="geometry">
            <mxPoint x="779" y="150" as="sourcePoint" />
            <mxPoint x="755" y="156" as="targetPoint" />
          </mxGeometry>
        </mxCell>
        <mxCell id="kXIBeF_RaEKFVuziZFFI-117" value="" style="endArrow=none;html=1;rounded=0;entryX=0;entryY=1;entryDx=0;entryDy=0;exitX=1;exitY=0;exitDx=0;exitDy=0;fontFamily=Kahroba RG;" edge="1" parent="1" source="kXIBeF_RaEKFVuziZFFI-54" target="kXIBeF_RaEKFVuziZFFI-49">
          <mxGeometry relative="1" as="geometry">
            <mxPoint x="370" y="360" as="sourcePoint" />
            <mxPoint x="530" y="360" as="targetPoint" />
          </mxGeometry>
        </mxCell>
        <mxCell id="kXIBeF_RaEKFVuziZFFI-118" value="" style="endArrow=none;html=1;rounded=0;exitX=1;exitY=1;exitDx=0;exitDy=0;entryX=0.25;entryY=0;entryDx=0;entryDy=0;fontFamily=Kahroba RG;" edge="1" parent="1" source="kXIBeF_RaEKFVuziZFFI-100" target="kXIBeF_RaEKFVuziZFFI-57">
          <mxGeometry relative="1" as="geometry">
            <mxPoint x="420" y="450" as="sourcePoint" />
            <mxPoint x="580" y="450" as="targetPoint" />
          </mxGeometry>
        </mxCell>
        <mxCell id="kXIBeF_RaEKFVuziZFFI-119" value="" style="endArrow=none;html=1;rounded=0;exitX=0.5;exitY=1;exitDx=0;exitDy=0;entryX=0.602;entryY=0.018;entryDx=0;entryDy=0;entryPerimeter=0;fontFamily=Kahroba RG;" edge="1" parent="1" source="kXIBeF_RaEKFVuziZFFI-67" target="kXIBeF_RaEKFVuziZFFI-57">
          <mxGeometry relative="1" as="geometry">
            <mxPoint x="420" y="490" as="sourcePoint" />
            <mxPoint x="580" y="490" as="targetPoint" />
          </mxGeometry>
        </mxCell>
        <mxCell id="kXIBeF_RaEKFVuziZFFI-120" value="" style="endArrow=none;html=1;rounded=0;exitX=0.25;exitY=1;exitDx=0;exitDy=0;entryX=1;entryY=0;entryDx=0;entryDy=0;fontFamily=Kahroba RG;" edge="1" parent="1" source="kXIBeF_RaEKFVuziZFFI-57" target="kXIBeF_RaEKFVuziZFFI-68">
          <mxGeometry relative="1" as="geometry">
            <mxPoint x="480" y="570" as="sourcePoint" />
            <mxPoint x="640" y="570" as="targetPoint" />
          </mxGeometry>
        </mxCell>
        <mxCell id="kXIBeF_RaEKFVuziZFFI-121" value="" style="endArrow=none;html=1;rounded=0;exitX=0.75;exitY=1;exitDx=0;exitDy=0;entryX=0;entryY=0;entryDx=0;entryDy=0;fontFamily=Kahroba RG;" edge="1" parent="1" source="kXIBeF_RaEKFVuziZFFI-57" target="kXIBeF_RaEKFVuziZFFI-69">
          <mxGeometry relative="1" as="geometry">
            <mxPoint x="480" y="570" as="sourcePoint" />
            <mxPoint x="640" y="570" as="targetPoint" />
          </mxGeometry>
        </mxCell>
        <mxCell id="kXIBeF_RaEKFVuziZFFI-122" value="" style="endArrow=none;html=1;rounded=0;exitX=0;exitY=1;exitDx=0;exitDy=0;entryX=0.75;entryY=0;entryDx=0;entryDy=0;fontFamily=Kahroba RG;" edge="1" parent="1" source="kXIBeF_RaEKFVuziZFFI-99" target="kXIBeF_RaEKFVuziZFFI-71">
          <mxGeometry relative="1" as="geometry">
            <mxPoint x="480" y="650" as="sourcePoint" />
            <mxPoint x="640" y="650" as="targetPoint" />
          </mxGeometry>
        </mxCell>
        <mxCell id="kXIBeF_RaEKFVuziZFFI-123" value="" style="endArrow=none;html=1;rounded=0;exitX=1;exitY=0.5;exitDx=0;exitDy=0;entryX=0;entryY=0.5;entryDx=0;entryDy=0;fontFamily=Kahroba RG;" edge="1" parent="1" source="kXIBeF_RaEKFVuziZFFI-71" target="kXIBeF_RaEKFVuziZFFI-73">
          <mxGeometry relative="1" as="geometry">
            <mxPoint x="480" y="650" as="sourcePoint" />
            <mxPoint x="640" y="650" as="targetPoint" />
          </mxGeometry>
        </mxCell>
        <mxCell id="kXIBeF_RaEKFVuziZFFI-124" value="" style="endArrow=none;html=1;rounded=0;exitX=0.634;exitY=0.979;exitDx=0;exitDy=0;exitPerimeter=0;entryX=0;entryY=0.5;entryDx=0;entryDy=0;fontFamily=Kahroba RG;" edge="1" parent="1" source="kXIBeF_RaEKFVuziZFFI-72" target="kXIBeF_RaEKFVuziZFFI-71">
          <mxGeometry relative="1" as="geometry">
            <mxPoint x="480" y="650" as="sourcePoint" />
            <mxPoint x="640" y="650" as="targetPoint" />
          </mxGeometry>
        </mxCell>
        <mxCell id="kXIBeF_RaEKFVuziZFFI-125" value="" style="endArrow=none;html=1;rounded=0;exitX=0.563;exitY=1.043;exitDx=0;exitDy=0;exitPerimeter=0;entryX=0.418;entryY=-0.01;entryDx=0;entryDy=0;entryPerimeter=0;fontFamily=Kahroba RG;" edge="1" parent="1" source="kXIBeF_RaEKFVuziZFFI-97" target="kXIBeF_RaEKFVuziZFFI-88">
          <mxGeometry relative="1" as="geometry">
            <mxPoint x="390" y="630" as="sourcePoint" />
            <mxPoint x="550" y="630" as="targetPoint" />
          </mxGeometry>
        </mxCell>
        <mxCell id="kXIBeF_RaEKFVuziZFFI-126" value="" style="endArrow=none;html=1;rounded=0;exitX=1;exitY=1;exitDx=0;exitDy=0;entryX=0.25;entryY=0;entryDx=0;entryDy=0;fontFamily=Kahroba RG;" edge="1" parent="1" source="kXIBeF_RaEKFVuziZFFI-96" target="kXIBeF_RaEKFVuziZFFI-88">
          <mxGeometry relative="1" as="geometry">
            <mxPoint x="390" y="630" as="sourcePoint" />
            <mxPoint x="550" y="630" as="targetPoint" />
          </mxGeometry>
        </mxCell>
        <mxCell id="kXIBeF_RaEKFVuziZFFI-127" value="" style="endArrow=none;html=1;rounded=0;exitX=1;exitY=1;exitDx=0;exitDy=0;entryX=0;entryY=0;entryDx=0;entryDy=0;fontFamily=Kahroba RG;" edge="1" parent="1" source="kXIBeF_RaEKFVuziZFFI-95" target="kXIBeF_RaEKFVuziZFFI-88">
          <mxGeometry relative="1" as="geometry">
            <mxPoint x="390" y="630" as="sourcePoint" />
            <mxPoint x="550" y="630" as="targetPoint" />
          </mxGeometry>
        </mxCell>
        <mxCell id="kXIBeF_RaEKFVuziZFFI-128" value="Sells" style="shape=rhombus;perimeter=rhombusPerimeter;whiteSpace=wrap;html=1;align=center;fontFamily=Kahroba RG;" vertex="1" parent="1">
          <mxGeometry x="340" y="355" width="100" height="50" as="geometry" />
        </mxCell>
        <mxCell id="kXIBeF_RaEKFVuziZFFI-129" value="" style="endArrow=none;html=1;rounded=0;exitX=0;exitY=0.5;exitDx=0;exitDy=0;entryX=1;entryY=0.5;entryDx=0;entryDy=0;fontFamily=Kahroba RG;" edge="1" parent="1" source="kXIBeF_RaEKFVuziZFFI-17" target="kXIBeF_RaEKFVuziZFFI-128">
          <mxGeometry relative="1" as="geometry">
            <mxPoint x="320" y="390" as="sourcePoint" />
            <mxPoint x="480" y="390" as="targetPoint" />
          </mxGeometry>
        </mxCell>
        <mxCell id="kXIBeF_RaEKFVuziZFFI-130" value="1" style="resizable=0;html=1;whiteSpace=wrap;align=right;verticalAlign=bottom;fontFamily=Kahroba RG;" connectable="0" vertex="1" parent="kXIBeF_RaEKFVuziZFFI-129">
          <mxGeometry x="1" relative="1" as="geometry" />
        </mxCell>
        <mxCell id="kXIBeF_RaEKFVuziZFFI-133" value="" style="shape=link;html=1;rounded=0;exitX=1;exitY=1;exitDx=0;exitDy=0;entryX=0;entryY=0.5;entryDx=0;entryDy=0;fontFamily=Kahroba RG;" edge="1" parent="1" source="kXIBeF_RaEKFVuziZFFI-2" target="kXIBeF_RaEKFVuziZFFI-128">
          <mxGeometry relative="1" as="geometry">
            <mxPoint x="320" y="390" as="sourcePoint" />
            <mxPoint x="480" y="390" as="targetPoint" />
            <Array as="points">
              <mxPoint x="260" y="380" />
            </Array>
          </mxGeometry>
        </mxCell>
        <mxCell id="kXIBeF_RaEKFVuziZFFI-134" value="N" style="resizable=0;html=1;whiteSpace=wrap;align=right;verticalAlign=bottom;fontFamily=Kahroba RG;" connectable="0" vertex="1" parent="kXIBeF_RaEKFVuziZFFI-133">
          <mxGeometry x="1" relative="1" as="geometry" />
        </mxCell>
        <mxCell id="kXIBeF_RaEKFVuziZFFI-27" value="PublicationYear" style="ellipse;whiteSpace=wrap;html=1;align=center;fontFamily=Kahroba RG;fontSize=12;" vertex="1" parent="1">
          <mxGeometry x="75" y="90" width="100" height="40" as="geometry" />
        </mxCell>
      </root>
    </mxGraphModel>
  </diagram>
</mxfile>
